<?xml version="1.0" standalone="no"?><!DOCTYPE svg PUBLIC "-//W3C//DTD SVG 1.1//EN" "http://www.w3.org/Graphics/SVG/1.1/DTD/svg11.dtd"><svg t="1628996945487" class="icon" viewBox="0 0 1024 1024" version="1.1" xmlns="http://www.w3.org/2000/svg" p-id="4726" xmlns:xlink="http://www.w3.org/1999/xlink" width="128" height="128"><defs><style type="text/css"></style></defs><path d="M849.170732 0c97.404878 0 174.829268 77.42439 174.829268 174.829268v674.341464c0 97.404878-77.42439 174.829268-174.829268 174.829268H174.829268c-97.404878 0-174.829268-77.42439-174.829268-174.829268V174.829268c0-97.404878 77.42439-174.829268 174.829268-174.829268h674.341464z m-107.395122 736.780488H259.746341c-9.990244 0-19.980488 7.492683-19.980487 17.482927v24.975609c0 2.497561 2.497561 4.995122 4.995122 4.995122h514.497561c2.497561 0 4.995122-2.497561 4.995122-4.995122v-22.478048c-2.497561-9.990244-12.487805-19.980488-22.478049-19.980488z m-127.37561-474.536586c-2.497561 0-2.497561 0-4.995122 2.497561L332.17561 541.970732l-2.497561 2.497561-19.980488 109.892683c-2.497561 12.487805 4.995122 22.478049 17.482927 24.975609H334.673171l109.892683-19.980487c2.497561 0 2.497561 0 2.497561-2.497561L724.292683 379.629268c2.497561-2.497561 2.497561-7.492683 0-9.990244l-109.892683-109.892683c4.995122 2.497561 2.497561 2.497561 0 2.497561z" fill="" p-id="4727"></path></svg>
