<?xml version="1.0" standalone="no"?><!DOCTYPE svg PUBLIC "-//W3C//DTD SVG 1.1//EN" "http://www.w3.org/Graphics/SVG/1.1/DTD/svg11.dtd"><svg t="1632710208548" class="icon" viewBox="0 0 1170 1024" version="1.1" xmlns="http://www.w3.org/2000/svg" p-id="9074" xmlns:xlink="http://www.w3.org/1999/xlink" width="200" height="230"><defs><style type="text/css"></style></defs><path d="M918.435066 85.356047c46.077784 0 88.498601 11.556016 127.213691 34.619288a249.551426 249.551426 0 0 1 91.960529 96.690206c22.624436 41.348107 33.25402 84.695355 31.986272 129.992986a264.130535 264.130535 0 0 1-37.837419 128.676478 243.700279 243.700279 0 0 1-95.22742 92.643164 245.943219 245.943219 0 0 1-128.530199 29.353255c-20.869092 76.45499-60.656892 137.989554-119.363402 184.652452-58.70651 46.662899-126.774855 70.457564-204.156276 71.335236H333.954224c-94.788584-2.681776-173.486513-35.984555-236.093788-99.957098C35.204402 689.291953 2.633016 608.83868 0 512.002194V42.691432C0 30.257745 3.900765 20.018237 11.702294 12.021669A40.177877 40.177877 0 0 1 41.786943 0.026818H876.696883c12.18989 0 22.1856 3.998284 29.987129 11.994851 7.80153 7.996568 11.751054 18.236075 11.751054 30.669763v42.664615z m0 85.32923v341.316917c46.955456-0.877672 86.304421-17.553441 118.095653-49.978548 31.693714-32.473867 48.028166-72.651744 48.905839-120.679911-0.877672-47.979407-17.163365-88.254803-48.905839-120.67991-31.791233-32.425107-71.140198-49.100877-118.095653-49.978548zM41.738183 938.648341H876.696883c12.18989 0 22.1856 3.998284 29.987129 11.994852 7.80153 7.996568 11.751054 18.236075 11.751054 30.669763s-3.900765 22.673195-11.702295 30.669763a40.177877 40.177877 0 0 1-30.035888 11.994852H41.738183a40.177877 40.177877 0 0 1-29.987129-11.994852 42.03074 42.03074 0 0 1-11.751054-30.669763c0-12.433688 3.900765-22.673195 11.702294-30.669763a40.177877 40.177877 0 0 1 30.035889-11.994852z m41.738183-853.292294v426.646147c1.755344 72.895542 26.086364 133.308636 73.09058 181.336803 46.955456 47.979407 106.100802 72.895542 177.387278 74.650885h250.526618c71.286476-1.755344 130.431822-26.671479 177.387278-74.650885 47.004216-48.028166 71.335236-108.441261 73.09058-181.336803V85.356047H83.476366z" fill="" p-id="9075"></path></svg>
