<?xml version="1.0" standalone="no"?><!DOCTYPE svg PUBLIC "-//W3C//DTD SVG 1.1//EN" "http://www.w3.org/Graphics/SVG/1.1/DTD/svg11.dtd"><svg t="1611916361650" class="icon" viewBox="0 0 1024 1024" version="1.1" xmlns="http://www.w3.org/2000/svg" p-id="24504" xmlns:xlink="http://www.w3.org/1999/xlink" width="128" height="128"><defs><style type="text/css"></style></defs><path d="M895.36 539.2h64v144.64h-64zM61.44 549.76h64v144.64h-64zM61.44 341.44h64v144.64h-64zM893.44 341.44h64v144.64h-64zM338.56 902.4h144.64v64h-144.64zM546.88 902.4h144.64v64h-144.64zM125.44 758.4h-64v208h213.12v-64H125.44zM893.44 902.4h-137.92v64h201.92v-207.68h-64zM540.48 70.4h144.64v64h-144.64zM331.84 70.4h144.64v64h-144.64zM893.44 277.44h64V70.4H748.8v64h144.64zM125.44 134.4h142.4v-64H61.44v207.04h64z" p-id="24505"></path><path d="M183.04 845.12h653.12V192H183.04v653.12z m407.04-313.28c0-4.16 0.32-9.28 0.96-15.68l1.28-18.24c0.32-5.76 0.96-14.08 1.28-24.96l1.28-27.84c0.32-7.68 0.64-16 0.96-25.28 9.92 0.32 16.64 0.32 20.16 0.32 4.48 0 10.88 0 19.52-0.32l-6.08 103.68v3.84c0 11.52 1.6 20.16 4.8 25.92s8 9.92 14.4 12.8 13.76 3.84 21.76 3.84c5.12 0 10.24-0.64 15.04-1.92 3.84-0.96 7.36-2.56 10.56-4.16 2.56-1.6 4.8-3.2 6.72-5.44a40.64 40.64 0 0 0 9.28-19.52c0.96-6.08 2.24-16.64 3.2-31.68l2.56-44.8c0.64-13.12 0.96-27.2 1.28-42.88 9.6 0.32 16.96 0.32 21.44 0.32l18.56-0.32-3.84 61.76-2.56 49.28c-0.64 11.52-1.92 19.84-3.52 25.6-1.28 4.8-3.2 8.96-5.76 13.12-2.56 3.52-5.12 6.72-8.64 9.6-4.16 3.84-9.28 6.72-15.04 9.6-6.4 2.88-13.12 5.12-20.48 6.4-9.92 1.92-20.16 2.88-30.72 2.88-10.88 0-20.8-0.96-30.4-2.88-8-1.6-15.36-4.48-22.08-8-6.72-3.52-12.16-7.68-16-12.16-3.2-3.52-5.76-8-7.68-13.44-2.24-6.08-3.2-12.8-3.2-20.16 0.64-1.92 0.64-5.12 0.96-9.28z m-153.6 32.96l3.2-67.2 1.6-48.96v-13.44-15.04c10.88 0.32 19.84 0.32 26.56 0.32 5.44 0 13.12 0 22.72-0.32s17.6-0.32 23.36-0.32c11.84 0 20.48 0.96 25.92 2.56 5.76 1.92 11.2 4.8 15.36 8.96 4.48 4.16 8 8.96 10.24 14.4 2.56 6.4 3.84 13.12 3.84 20.48 0 11.2-2.88 21.12-8.32 30.08-5.44 8.96-13.12 15.68-23.04 20.16-9.6 4.48-20.48 6.72-32.32 6.72-5.76 0-12.16-0.64-18.56-1.92-1.92-8.96-4.16-17.28-6.4-24.96 5.44 0.96 10.56 1.6 15.68 1.6 7.04 0 13.12-0.96 18.56-3.2a28.48 28.48 0 0 0 12.48-10.56c3.2-4.8 4.48-10.24 4.48-16.32 0-3.52-0.64-6.72-1.92-9.92a17.376 17.376 0 0 0-5.44-7.04 19.84 19.84 0 0 0-8-3.52c-2.88-0.64-7.04-0.96-12.48-0.96-4.8 0-9.6 0-14.4 0.32s-9.28 0.32-12.8 0.32c-0.96 16.64-1.92 32.64-2.24 48L472.96 544c-0.64 17.28-0.64 30.08-0.64 38.08v13.44l-18.56-0.32c-2.24 0-8.96 0-19.2 0.32l1.92-30.72z m-169.92-92.8c5.12-12.16 12.16-22.08 21.76-30.4s20.8-14.4 33.6-18.56c12.8-4.16 26.24-6.08 40.32-6.08 13.76 0 29.12 1.6 45.44 4.8 0.32 7.68 0.64 13.12 0.64 16.32l0.96 13.76c-9.6-2.56-17.6-4.16-24-5.12-6.4-0.96-12.48-1.28-18.24-1.28-9.28 0-17.92 1.28-26.24 4.16s-16 7.36-22.4 13.44-11.52 13.44-14.72 22.08c-3.52 8.64-5.12 17.6-5.12 26.88 0 11.2 2.24 21.12 6.4 29.76s11.2 16 20.48 21.44c9.28 5.44 21.12 8.32 35.2 8.32 12.8 0 28.48-2.56 46.4-7.68-1.92 9.92-3.52 20.16-4.8 30.4-9.6 1.6-18.56 2.88-26.88 3.52s-15.04 0.96-20.8 0.96a128 128 0 0 1-36.8-5.44c-11.84-3.52-22.08-9.28-31.68-16.96-9.28-7.68-16-17.28-20.48-28.16-4.16-10.88-6.4-23.04-6.4-36.16 0-14.72 2.56-27.84 7.36-40z" p-id="24506"></path></svg>
