<?xml version="1.0" standalone="no"?><!DOCTYPE svg PUBLIC "-//W3C//DTD SVG 1.1//EN" "http://www.w3.org/Graphics/SVG/1.1/DTD/svg11.dtd"><svg t="1606211767055" class="icon" viewBox="0 0 1110 1024" version="1.1" xmlns="http://www.w3.org/2000/svg" p-id="3074" xmlns:xlink="http://www.w3.org/1999/xlink" width="216.796875" height="200"><defs><style type="text/css"></style></defs><path d="M1102.38228 7.530604C1097.411655 1.301322 1089.113057 0 1083.033108 0 1079.406472 0 1075.481171 0.469329 1071.363872 1.365322L845.787085 50.751577C831.472538 53.887551 825.051258 59.583503 823.920601 63.487471 822.76861 67.391438 825.115257 75.668703 835.483171 86.100616L889.62672 140.734827 811.696703 219.454171 578.717311 454.801543 548.957559 484.85996 442.227781 377.063524C432.841193 367.57027 417.60932 367.57027 408.222731 377.063524L399.070808 386.300781 363.9991 421.735152 75.062841 713.57272 7.010075 782.329481C1.506121 787.897434-0.755194 795.492038 0.226131 802.702644-0.563195 807.225273 0.75946 812.046566 4.194098 815.523871L44.407097 856.163532C45.857751 857.614187 47.521737 858.659511 49.292389 859.384838L51.25504 861.347489C60.641628 870.840743 75.873501 870.840743 85.260089 861.347489L409.22539 534.075549 425.203923 517.969017 483.443438 576.80586C484.168765 577.531187 484.936759 578.171182 485.704752 578.789843 486.323414 579.600503 486.963409 580.347164 487.688736 581.093824L531.912367 625.765452C541.298956 635.237373 556.552162 635.237373 565.938751 625.765452L656.924659 533.862218 889.882718 298.514846 967.898068 219.710169 1021.892284 274.173715C1032.878859 285.266956 1040.281464 286.120282 1042.286781 286.120282 1049.540054 286.120282 1054.702677 274.088383 1056.921326 263.784468L1105.902251 36.245031C1108.568895 23.914467 1107.331572 13.717219 1102.38228 7.530604L1102.38228 7.530604 1102.38228 7.530604ZM216.885659 806.371947 212.299031 810.78791C211.637703 811.406572 208.757727 814.243881 203.9791 819.086508L169.910051 853.326222 169.910051 895.992533 169.910051 1002.658311C169.910051 1015.863534 175.24334 1023.991467 188.320564 1023.991467L319.24214 1023.991467C332.319364 1023.991467 340.575295 1015.863534 340.575295 1002.658311L340.575295 895.992533 340.575295 682.660978 224.586928 798.670678C221.600287 801.678653 218.869643 804.409297 216.885659 806.371947L216.885659 806.371947 216.885659 806.371947ZM425.097258 596.112366 383.241606 639.994667 383.241606 895.992533 383.241606 1002.658311C383.241606 1015.863534 391.518871 1023.991467 404.574762 1023.991467L529.992383 1023.991467C543.048275 1023.991467 553.650853 1013.282223 553.650853 1000.076999L553.650853 893.517887 553.650853 893.496554 553.906851 703.994133C530.995042 703.844801 506.141915 677.711686 489.907384 661.327822L425.097258 596.112366 425.097258 596.112366ZM596.573162 682.660978 596.573162 895.992533 596.573162 1002.658311C596.573162 1015.863534 604.850426 1023.991467 617.906317 1023.991467L749.766552 1023.991467C762.843776 1023.991467 767.238406 1015.863534 767.238406 1002.658311L767.238406 895.992533 767.238406 511.995733 615.431671 664.698461C611.933034 668.239765 600.541129 679.823668 596.573162 682.660978L596.573162 682.660978 596.573162 682.660978ZM1001.903117 895.992533C1002.031116 896.995192 1007.919067 900.301831 1001.903117 895.992533L1001.903117 1002.658311C1001.903117 1015.863534 993.647186 1023.991467 980.569962 1023.991467L847.664403 1023.991467C845.21109 1023.991467 842.864443 1023.628803 840.645795 1022.924809 831.003208 1019.895501 831.237873 1013.388888 831.237873 1002.658311L831.237873 895.992533 831.237873 447.996267 825.136591 452.860226C825.392588 452.604228 825.627253 452.326897 825.883251 452.070899 826.288581 451.644236 826.693911 451.19624 827.099241 450.769577L827.099241 450.79091 827.099241 450.769577C826.949909 450.940242 826.779244 451.132241 826.608578 451.324239 826.501912 451.430905 826.41658 451.537571 826.331247 451.644236 827.205907 450.748244 831.195207 446.694944 835.973834 441.894984L940.506296 336.274531 940.676961 336.423863 980.569962 298.664178 1001.903117 277.331022 980.569962 298.664178 1001.903117 277.331022 1001.903117 661.327822 1001.903117 895.992533 1001.903117 895.992533Z" p-id="3075"></path></svg>
