<?xml version="1.0" standalone="no"?><!DOCTYPE svg PUBLIC "-//W3C//DTD SVG 1.1//EN" "http://www.w3.org/Graphics/SVG/1.1/DTD/svg11.dtd"><svg t="1627528986799" class="icon" viewBox="0 0 1024 1024" version="1.1" xmlns="http://www.w3.org/2000/svg" p-id="1381" xmlns:xlink="http://www.w3.org/1999/xlink" width="128" height="128"><defs><style type="text/css">@font-face { font-family: feedback-iconfont; src: url("//at.alicdn.com/t/font_1031158_1uhr8ri0pk5.eot?#iefix") format("embedded-opentype"), url("//at.alicdn.com/t/font_1031158_1uhr8ri0pk5.woff2") format("woff2"), url("//at.alicdn.com/t/font_1031158_1uhr8ri0pk5.woff") format("woff"), url("//at.alicdn.com/t/font_1031158_1uhr8ri0pk5.ttf") format("truetype"), url("//at.alicdn.com/t/font_1031158_1uhr8ri0pk5.svg#iconfont") format("svg"); }
</style></defs><path d="M736 544c-106 0-192 86-192 192s86 192 192 192 192-86 192-192-86-192-192-192z m118.6 214.6c-5.8 5.8-13.8 9.4-22.6 9.4h-96c-17.6 0-32-14.4-32-32V608c0-17.6 14.4-32 32-32 8.8 0 16.8 3.6 22.6 9.4 5.8 5.8 9.4 13.8 9.4 22.6v96h64c17.6 0 32 14.4 32 32 0 8.8-3.6 16.8-9.4 22.6z" p-id="1382" fill="#1296db"></path><path d="M498.6 311.1m-215.2 0a215.2 215.2 0 1 0 430.4 0 215.2 215.2 0 1 0-430.4 0Z" p-id="1383" fill="#1296db"></path><path d="M500.1 835.7c9.2 21.8 21.3 42 36 60.3H126.7c-16.6 0-30.1-13.1-30.7-29.5V863v-0.1c2.7-134.7 72.3-253.2 176.9-323.7 21-14.2 48.5-13.9 69.5 0.4 15.2 10.4 31.4 19.3 48.5 26.5 34.2 14.5 70.4 21.8 107.7 21.8 10 0 19.9-0.5 29.7-1.6-11.2 15.5-20.7 32.3-28.2 50.1C486.8 668 480 701.5 480 736c0 34.6 6.8 68.1 20.1 99.7z" p-id="1384" fill="#1296db"></path></svg>