<?xml version="1.0" standalone="no"?><!DOCTYPE svg PUBLIC "-//W3C//DTD SVG 1.1//EN" "http://www.w3.org/Graphics/SVG/1.1/DTD/svg11.dtd"><svg t="1612181977424" class="icon" viewBox="0 0 1105 1024" version="1.1" xmlns="http://www.w3.org/2000/svg" p-id="8012" xmlns:xlink="http://www.w3.org/1999/xlink" width="138.125" height="128"><defs><style type="text/css"></style></defs><path d="M1002.2912 1004.544H116.24448c-52.92032 0-95.76448-38.33856-95.76448-91.3408V806.912c0-52.92032 42.88512-91.25888 95.76448-91.25888h886.08768c52.92032 0 95.80544 38.33856 95.80544 91.25888v106.20928c0 53.0432-42.88512 91.3408-95.8464 91.3408z m-107.02848-213.72928a69.34528 69.34528 0 1 0 0 138.69056 69.34528 69.34528 0 0 0 0-138.69056z m107.02848-144.1792H116.24448C63.32416 646.63552 20.48 608.33792 20.48 555.37664v-106.2912c0-52.92032 42.88512-91.25888 95.76448-91.25888h886.08768c52.92032 0 95.80544 38.2976 95.80544 91.25888v106.2912c0 52.96128-42.88512 91.25888-95.8464 91.25888z m-107.02848-213.72928a69.46816 69.46816 0 0 0 0 138.8544 69.38624 69.38624 0 1 0 0-138.8544z m107.02848-143.89248H116.24448C63.32416 289.01376 20.48 250.51136 20.48 197.67296V91.46368C20.48 38.46144 63.36512 0 116.24448 0h886.08768c52.92032 0 95.80544 38.46144 95.80544 91.50464v106.16832c0 52.8384-42.88512 91.3408-95.8464 91.3408z m-107.02848-213.8112c-38.17472 0-69.34528 31.04768-69.34528 69.34528a69.34528 69.34528 0 0 0 138.69056 0c0-38.2976-31.1296-69.34528-69.34528-69.34528z" p-id="8013"></path></svg>
