<?xml version="1.0" standalone="no"?><!DOCTYPE svg PUBLIC "-//W3C//DTD SVG 1.1//EN" "http://www.w3.org/Graphics/SVG/1.1/DTD/svg11.dtd"><svg t="1611928935572" class="icon" viewBox="0 0 1088 1024" version="1.1" xmlns="http://www.w3.org/2000/svg" p-id="2442" xmlns:xlink="http://www.w3.org/1999/xlink" width="136" height="128"><defs><style type="text/css"></style></defs><path d="M1024 958.528c0 34.368-17.6 62.336-39.36 62.336H103.36c-21.76 0-39.36-27.968-39.36-62.336 0-34.496 17.6-62.464 39.36-62.464h881.28c21.76 0 39.36 27.968 39.36 62.464zM316.608 784.512c0 24.128-23.424 43.904-52.224 43.904H186.112c-28.864 0-52.16-19.776-52.16-43.904v-220.16c0-24.192 23.296-43.904 52.16-43.904h78.272c28.8 0 52.224 19.712 52.224 43.904v220.16zM634.304 784.576c0 24.192-23.36 43.84-52.16 43.84H503.808c-28.8 0-52.16-19.648-52.16-43.84v-286.72c0-24.192 23.36-43.84 52.16-43.84h78.336c28.8 0 52.16 19.648 52.16 43.84v286.72zM956.032 782.848c0 24-23.488 43.52-52.736 43.52h-79.104c-29.184 0-52.736-19.52-52.736-43.52V366.528c0-24 23.552-43.52 52.736-43.52h79.104c29.248 0 52.736 19.52 52.736 43.52v416.32zM110.976 442.944a44.992 44.992 0 0 1-45.12-43.072 44.672 44.672 0 0 1 43.648-46.016c320.256-11.328 625.152-134.72 836.736-338.752a45.696 45.696 0 0 1 64 0.768 44.16 44.16 0 0 1-0.704 63.04C778.752 301.44 460.224 430.72 112.64 442.88l-1.664 0.064z" p-id="2443"></path></svg>
