<?xml version="1.0" standalone="no"?><!DOCTYPE svg PUBLIC "-//W3C//DTD SVG 1.1//EN" "http://www.w3.org/Graphics/SVG/1.1/DTD/svg11.dtd"><svg t="1611985824073" class="icon" viewBox="0 0 1028 1024" version="1.1" xmlns="http://www.w3.org/2000/svg" p-id="4587" xmlns:xlink="http://www.w3.org/1999/xlink" width="128.5" height="128"><defs><style type="text/css"></style></defs><path d="M28.672 854.016C10.24 872.448 0 898.048 0 924.672c0 26.624 10.24 52.224 28.672 70.656C51.2 1013.76 76.8 1024 103.424 1024c26.624 0 53.248-10.24 70.656-27.648l297.984-297.984-145.408-140.288L28.672 854.016zM827.392 277.504l128-66.56 72.704-136.192L953.344 0 814.08 71.68l-66.56 129.024-162.816 158.72 83.968 83.968z" p-id="4588"></path><path d="M818.176 603.136h-15.36c-20.48 0-37.888 3.072-53.248 6.144L415.744 270.336c3.072-15.36 7.168-32.768 7.168-53.248v-13.312c-3.072-49.152-25.6-96.256-63.488-131.072C322.56 39.936 273.408 20.48 225.28 20.48c-38.912 0-69.632 7.168-91.136 23.552l-23.552 18.432 138.24 138.24 2.048 2.048v5.12l3.072 5.12c4.096 8.192 2.048 22.528-6.144 28.672l-3.072 3.072-2.048 4.096c-2.048 3.072-6.144 7.168-16.384 7.168h-8.192c-5.12-4.096-10.24-7.168-13.312-8.192h-1.024L55.296 98.304l-14.336 36.864c-14.336 34.816-20.48 62.464-20.48 84.992 0 52.224 19.456 101.376 54.272 138.24 34.816 36.864 83.968 58.368 136.192 59.392h14.336c20.48 0 37.888-3.072 53.248-7.168l337.92 338.944c-3.072 15.36-7.168 32.768-7.168 53.248v15.36c3.072 52.224 24.576 100.352 61.44 135.168 36.864 34.816 84.992 54.272 136.192 54.272 35.84 0 62.464-7.168 89.088-22.528l28.672-17.408-140.288-141.312c-1.024-1.024-3.072-4.096-4.096-5.12l-6.144-9.216c-3.072-8.192 0-20.48 7.168-26.624l1.024-1.024 1.024-1.024c5.12-5.12 17.408-11.264 23.552-11.264h3.072l4.096 2.048c3.072 1.024 5.12 2.048 7.168 3.072h1.024l1.024 3.072 148.48 148.48 14.336-36.864c10.24-25.6 20.48-51.2 20.48-84.992 1.024-108.544-81.92-198.656-188.416-203.776z" p-id="4589"></path></svg>