<?xml version="1.0" standalone="no"?><!DOCTYPE svg PUBLIC "-//W3C//DTD SVG 1.1//EN" "http://www.w3.org/Graphics/SVG/1.1/DTD/svg11.dtd"><svg t="1611930189106" class="icon" viewBox="0 0 1280 1024" version="1.1" xmlns="http://www.w3.org/2000/svg" p-id="2093" xmlns:xlink="http://www.w3.org/1999/xlink" width="160" height="128"><defs><style type="text/css"></style></defs><path d="M640.00224 256m-64 0a64 64 0 1 0 128 0 64 64 0 1 0-128 0Z" p-id="2094"></path><path d="M1024.00224 640m-64 0a64 64 0 1 0 128 0 64 64 0 1 0-128 0Z" p-id="2095"></path><path d="M256.00224 640m-64 0a64 64 0 1 0 128 0 64 64 0 1 0-128 0Z" p-id="2096"></path><path d="M323.20224 323.2a64 64 0 1 0 90.56 0 64 64 0 0 0-90.56 0zM956.80224 323.2a64 64 0 1 0 0 90.56 64 64 0 0 0 0-90.56z" p-id="2097"></path><path d="M1092.48224 187.52A640 640 0 0 0 0.00224 640a634.88 634.88 0 0 0 128 384l91.52-91.52A512 512 0 0 1 1001.92224 278.08a512 512 0 0 1 58.24 654.4L1152.00224 1024a640 640 0 0 0-59.52-836.48z" p-id="2098"></path><path d="M556.80224 752a96 96 0 0 0 166.4 96c26.56-45.76 92.8-352 92.8-352s-232.64 210.24-259.2 256z" p-id="2099"></path></svg>