<?xml version="1.0" standalone="no"?><!DOCTYPE svg PUBLIC "-//W3C//DTD SVG 1.1//EN" "http://www.w3.org/Graphics/SVG/1.1/DTD/svg11.dtd"><svg t="1632710860005" class="icon" viewBox="0 0 1024 1024" version="1.1" xmlns="http://www.w3.org/2000/svg" p-id="9358" xmlns:xlink="http://www.w3.org/1999/xlink" width="200" height="200"><defs><style type="text/css"></style></defs><path d="M413.81376 970.884096v-65.536h196.608v65.536h-196.608z m458.752-557.056c0 54.612992-11.433984 105.984-34.304 154.112-22.868992 48.128-55.124992 89.257984-96.768 123.392-19.796992 16.384-35.668992 35.668992-47.616 57.856-11.945984 22.185984-17.92 46.249984-17.92 72.192v18.432h-327.68v-14.336c0-25.259008-4.948992-49.152-14.848-71.68-9.897984-22.528-24.404992-41.302016-43.52-56.32-53.929984-43.008-92.500992-95.744-115.712-158.208-23.209984-62.464-28.672-127.488-16.384-195.072 14.336-70.998016 46.251008-131.926016 95.744-182.784 49.494016-50.859008 109.739008-84.139008 180.736-99.84 53.931008-11.606016 107.179008-11.264 159.744 1.024 52.566016 12.288 100.352 35.84 143.36 70.656s76.288 76.457984 99.84 124.928c23.552 48.468992 35.328 100.352 35.328 155.648z m-557.056 32.768c0.683008-68.950016 18.603008-124.075008 53.76-165.376 35.158016-41.302016 82.774016-62.635008 142.848-64v-65.536c-79.872 2.048-143.188992 30.208-189.952 84.48-46.761984 54.272-70.825984 124.416-72.192 210.432h65.536z" p-id="9359"></path></svg>
