<?xml version="1.0" standalone="no"?><!DOCTYPE svg PUBLIC "-//W3C//DTD SVG 1.1//EN" "http://www.w3.org/Graphics/SVG/1.1/DTD/svg11.dtd"><svg t="1631427306846" class="icon" viewBox="0 0 1024 1024" version="1.1" xmlns="http://www.w3.org/2000/svg" p-id="2922" xmlns:xlink="http://www.w3.org/1999/xlink" width="128" height="128"><defs><style type="text/css"></style></defs><path d="M863.28 62H160.71c-51.49 0-93.23 41.74-93.23 93.23v549.49c0 51.49 41.74 93.24 93.23 93.24h702.56c51.49 0 93.24-41.74 93.24-93.24V155.23c0-51.49-41.74-93.23-93.23-93.23z m-27.72 450.82c-17.5 11.67-41.16 6.93-52.84-10.57l-118.2-177.31L542.7 538.12a38.114 38.114 0 0 1-25.37 18.41c-2.56 0.52-5.15 0.79-7.71 0.79-8.18 0-16.21-2.64-22.87-7.63l-124.68-93.51-80.65 88.67c-14.17 15.57-38.26 16.7-53.83 2.55-15.57-14.17-16.7-38.26-2.55-53.83l103.99-114.31c13.22-14.53 35.32-16.62 51.04-4.84l117.89 88.41L628.94 233.6a38.07 38.07 0 0 1 31.77-19.17 38.068 38.068 0 0 1 33.02 16.94l152.4 228.61c11.67 17.5 6.94 41.16-10.57 52.84zM287.91 844.58l-43.71 95.21c-6.41 13.98-20.22 22.22-34.65 22.22-5.31 0-10.72-1.12-15.87-3.49-19.11-8.77-27.5-31.39-18.73-50.52l29.11-63.42h83.85zM835.69 958.51a37.931 37.931 0 0 1-15.87 3.49c-14.43 0-28.24-8.24-34.65-22.22l-43.71-95.21h83.86L854.41 908c8.78 19.12 0.39 41.74-18.72 50.51z" p-id="2923"></path></svg>