<?xml version="1.0" standalone="no"?><!DOCTYPE svg PUBLIC "-//W3C//DTD SVG 1.1//EN" "http://www.w3.org/Graphics/SVG/1.1/DTD/svg11.dtd"><svg t="1633504435352" class="icon" viewBox="0 0 1024 1024" version="1.1" xmlns="http://www.w3.org/2000/svg" p-id="3764" xmlns:xlink="http://www.w3.org/1999/xlink" width="200" height="200"><defs><style type="text/css"></style></defs><path d="M753.066667 516.266667c-12.8-17.066667-27.733333-23.466667-51.2-29.866667-6.4-2.133333-27.733333-2.133333-32-2.133333 0 0-6.4 2.133333-10.666667 4.266666-6.4 2.133333-10.666667 4.266667-17.066667 6.4-8.533333 4.266667-25.6 17.066667-27.733333 19.2-2.133333 2.133333-4.266667 6.4-8.533333 8.533334-8.533333 6.4-59.733333 57.6-74.666667 70.4l-38.4 38.4c-17.066667 17.066667-29.866667 29.866667-29.866667 32 0 2.133333 194.133333 2.133333 217.6 0 8.533333 0 17.066667-2.133333 25.6-2.133334 17.066667-4.266667 34.133333-14.933333 46.933334-32 6.4-8.533333 10.666667-17.066667 14.933333-29.866666 2.133333-8.533333 4.266667-12.8 2.133333-27.733334 2.133333-23.466667-4.266667-38.4-17.066666-55.466666zM832 106.666667H192C145.066667 106.666667 106.666667 145.066667 106.666667 192v640c0 46.933333 38.4 85.333333 85.333333 85.333333h640c46.933333 0 85.333333-38.4 85.333333-85.333333V192c0-46.933333-38.4-85.333333-85.333333-85.333333z m-53.333333 580.266666c-10.666667 8.533333-23.466667 17.066667-29.866667 19.2-2.133333 0-4.266667 2.133333-6.4 2.133334-2.133333 2.133333-23.466667 6.4-36.266667 10.666666-10.666667 2.133333-27.733333 2.133333-194.133333 2.133334-198.4 0-189.866667 0-215.466667-6.4-21.333333-6.4-42.666667-19.2-59.733333-36.266667-29.866667-27.733333-42.666667-64-42.666667-104.533333 0-14.933333 2.133333-29.866667 6.4-44.8 6.4-17.066667 8.533333-23.466667 27.733334-49.066667 4.266667-4.266667 23.466667-21.333333 29.866666-27.733333 10.666667-6.4 44.8-21.333333 51.2-21.333334 4.266667 0 6.4-4.266667 8.533334-10.666666 6.4-21.333333 8.533333-25.6 12.8-40.533334 10.666667-25.6 29.866667-51.2 53.333333-70.4 4.266667-4.266667 8.533333-6.4 12.8-10.666666 2.133333-2.133333 4.266667-2.133333 6.4-4.266667 17.066667-12.8 53.333333-27.733333 78.933333-29.866667 27.733333-4.266667 59.733333-2.133333 81.066667 6.4 17.066667 4.266667 21.333333 6.4 23.466667 8.533334 4.266667 2.133333 10.666667 4.266667 14.933333 6.4 19.2 8.533333 42.666667 27.733333 55.466667 42.666666 10.666667 12.8 23.466667 27.733333 25.6 34.133334 0 2.133333 2.133333 4.266667 4.266666 6.4 2.133333 2.133333 4.266667 6.4 4.266667 10.666666 0 2.133333 2.133333 6.4 4.266667 10.666667 4.266667 8.533333 4.266667 8.533333-19.2 10.666667-10.666667 0-23.466667 2.133333-27.733334 2.133333-2.133333 0-6.4 2.133333-8.533333 2.133333 0 0-4.266667-4.266667-6.4-10.666666-6.4-12.8-19.2-25.6-29.866667-36.266667-17.066667-14.933333-34.133333-23.466667-59.733333-29.866667-12.8-8.533333-17.066667-8.533333-32-8.533333-12.8 0-21.333333 0-27.733333 2.133333-4.266667 2.133333-10.666667 2.133333-12.8 4.266667-17.066667 4.266667-38.4 17.066667-53.333334 29.866667-14.933333 14.933333-25.6 27.733333-32 42.666666-4.266667 6.4-12.8 29.866667-10.666666 32 0 0 6.4 4.266667 12.8 6.4 14.933333 4.266667 27.733333 12.8 40.533333 21.333334 12.8 8.533333 34.133333 27.733333 36.266667 29.866666 4.266667 4.266667 10.666667 8.533333 14.933333 12.8 6.4 6.4 12.8 10.666667 12.8 12.8 0 0-6.4 8.533333-14.933333 17.066667-19.2 17.066667-23.466667 21.333333-25.6 21.333333 0 0-4.266667-4.266667-10.666667-6.4-4.266667-4.266667-10.666667-10.666667-14.933333-12.8-4.266667-2.133333-10.666667-8.533333-14.933334-12.8-23.466667-21.333333-49.066667-34.133333-72.533333-34.133333-19.2 0-44.8 8.533333-57.6 21.333333-12.8 10.666667-25.6 29.866667-29.866667 46.933334-2.133333 10.666667-2.133333 34.133333 0 44.8 8.533333 34.133333 36.266667 57.6 70.4 64 10.666667 2.133333 21.333333 2.133333 32 2.133333h21.333334l10.666666-10.666667 23.466667-23.466666c40.533333-38.4 81.066667-76.8 119.466667-115.2 19.2-19.2 51.2-49.066667 68.266666-61.866667 8.533333-6.4 23.466667-14.933333 32-17.066667 4.266667-2.133333 8.533333-4.266667 12.8-4.266666 10.666667-4.266667 25.6-6.4 49.066667-4.266667 8.533333 0 14.933333 0 23.466667 2.133333 6.4 2.133333 29.866667 10.666667 32 10.666667 2.133333 2.133333 4.266667 2.133333 6.4 2.133333 6.4 2.133333 14.933333 8.533333 27.733333 19.2 12.8 10.666667 19.2 17.066667 23.466667 25.6 2.133333 2.133333 4.266667 6.4 6.4 8.533334 2.133333 2.133333 12.8 23.466667 12.8 25.6 0 2.133333 0 4.266667 2.133333 6.4 4.266667 6.4 8.533333 36.266667 8.533333 46.933333-2.133333 40.533333-23.466667 83.2-55.466666 110.933333z" p-id="3765" fill="#1296db"></path></svg>