<?xml version="1.0" standalone="no"?><!DOCTYPE svg PUBLIC "-//W3C//DTD SVG 1.1//EN" "http://www.w3.org/Graphics/SVG/1.1/DTD/svg11.dtd"><svg t="1606212248452" class="icon" viewBox="0 0 1024 1024" version="1.1" xmlns="http://www.w3.org/2000/svg" p-id="6868" xmlns:xlink="http://www.w3.org/1999/xlink" width="250" height="250"><defs><style type="text/css"></style></defs><path d="M93.090909 93.090909v186.181818h186.181818V93.090909H93.090909z m0-93.090909h186.181818a93.090909 93.090909 0 0 1 93.090909 93.090909v186.181818a93.090909 93.090909 0 0 1-93.090909 93.090909H93.090909a93.090909 93.090909 0 0 1-93.090909-93.090909V93.090909a93.090909 93.090909 0 0 1 93.090909-93.090909zM744.727273 93.090909v186.181818h186.181818V93.090909h-186.181818z m0-93.090909h186.181818a93.090909 93.090909 0 0 1 93.090909 93.090909v186.181818a93.090909 93.090909 0 0 1-93.090909 93.090909h-186.181818a93.090909 93.090909 0 0 1-93.090909-93.090909V93.090909a93.090909 93.090909 0 0 1 93.090909-93.090909zM93.090909 744.727273v186.181818h186.181818v-186.181818H93.090909z m0-93.090909h186.181818a93.090909 93.090909 0 0 1 93.090909 93.090909v186.181818a93.090909 93.090909 0 0 1-93.090909 93.090909H93.090909a93.090909 93.090909 0 0 1-93.090909-93.090909v-186.181818a93.090909 93.090909 0 0 1 93.090909-93.090909zM744.727273 744.727273v186.181818h186.181818v-186.181818h-186.181818z m0-93.090909h186.181818a93.090909 93.090909 0 0 1 93.090909 93.090909v186.181818a93.090909 93.090909 0 0 1-93.090909 93.090909h-186.181818a93.090909 93.090909 0 0 1-93.090909-93.090909v-186.181818a93.090909 93.090909 0 0 1 93.090909-93.090909z" fill="#e6e6e6" p-id="6869"></path><path d="M232.727273 701.812364H139.636364v-232.401455h93.090909z" fill="#e6e6e6" p-id="6870"></path><path d="M312.133818 529.221818a46.545455 46.545455 0 0 1-65.722182 65.908364l-93.090909-92.765091a46.545455 46.545455 0 1 1 65.722182-65.908364l93.090909 92.718546z" fill="#e6e6e6" p-id="6871"></path><path d="M125.952 595.130182a46.545455 46.545455 0 0 1-65.722182-65.954909l93.090909-92.718546a46.545455 46.545455 0 0 1 65.722182 65.908364l-93.090909 92.765091zM322.187636 232.727273V139.636364h232.401455v93.090909z" fill="#e6e6e6" p-id="6872"></path><path d="M494.778182 312.133818a46.545455 46.545455 0 1 1-65.908364-65.722182l92.765091-93.090909a46.545455 46.545455 0 0 1 65.908364 65.722182l-92.718546 93.090909z" fill="#e6e6e6" p-id="6873"></path><path d="M428.869818 125.952a46.545455 46.545455 0 1 1 65.954909-65.722182l92.718546 93.090909a46.545455 46.545455 0 1 1-65.908364 65.722182l-92.765091-93.090909zM791.272727 322.187636h93.090909v232.401455h-93.090909z" fill="#e6e6e6" p-id="6874"></path><path d="M711.866182 494.778182a46.545455 46.545455 0 0 1 65.722182-65.908364l93.090909 92.765091a46.545455 46.545455 0 0 1-65.722182 65.908364l-93.090909-92.718546z" fill="#e6e6e6" p-id="6875"></path><path d="M898.048 428.869818a46.545455 46.545455 0 0 1 65.722182 65.954909l-93.090909 92.718546a46.545455 46.545455 0 0 1-65.722182-65.908364l93.090909-92.765091zM701.812364 791.272727v93.090909h-232.401455v-93.090909z" fill="#e6e6e6" p-id="6876"></path><path d="M529.221818 711.866182a46.545455 46.545455 0 1 1 65.908364 65.722182l-92.765091 93.090909a46.545455 46.545455 0 0 1-65.908364-65.722182l92.718546-93.090909z" fill="#e6e6e6" p-id="6877"></path><path d="M595.130182 898.048a46.545455 46.545455 0 1 1-65.954909 65.722182l-92.718546-93.090909a46.545455 46.545455 0 1 1 65.908364-65.722182l92.765091 93.090909z" fill="#e6e6e6" p-id="6878"></path></svg>